<svg width="1600" height="400" viewBox="0 0 1600 400" xmlns="http://www.w3.org/2000/svg">
  <defs>
    <linearGradient id="grad-neon" x1="0%" y1="0%" x2="100%" y2="0%">
      <stop offset="0%" stop-color="#00f0ff"/>
      <stop offset="50%" stop-color="#9f7fff"/>
      <stop offset="100%" stop-color="#ff47c2"/>
    </linearGradient>

    <radialGradient id="grad-core" cx="50%" cy="50%" r="60%">
      <stop offset="0%" stop-color="#00f0ff" stop-opacity="0.9"/>
      <stop offset="40%" stop-color="#9f7fff" stop-opacity="0.4"/>
      <stop offset="100%" stop-color="#000000" stop-opacity="0"/>
    </radialGradient>

    <filter id="glow">
      <feGaussianBlur stdDeviation="4" result="blur"/>
      <feColorMatrix in="blur" type="matrix"
        values="0 0 0 0 0
                0 0 0 0 1
                0 0 0 0 1
                0 0 0 0.8 0"/>
    </filter>

    <style>
      .bg { fill: #050510; }
      .grid-line { stroke: #1b1b33; stroke-width: 1; }
      .node { fill: #00f0ff; }
      .node-pulse { animation: pulse 3s infinite ease-in-out; }
      .title { font-family: "JetBrains Mono", monospace; fill: #f5f5ff; letter-spacing: 0.25em; }
      .subtitle { font-family: "JetBrains Mono", monospace; fill: #9f7fff; font-size: 18px; letter-spacing: 0.2em; }
      .tag { font-family: "JetBrains Mono", monospace; fill: #00f0ff; font-size: 14px; letter-spacing: 0.15em; }

      @keyframes pulse {
        0% { r: 3; opacity: 0.2; }
        50% { r: 7; opacity: 0.9; }
        100% { r: 3; opacity: 0.2; }
      }

      @keyframes drift {
        0% { transform: translateX(0); opacity: 0.1; }
        50% { transform: translateX(40px); opacity: 0.4; }
        100% { transform: translateX(0); opacity: 0.1; }
      }
    </style>
  </defs>

  <rect class="bg" x="0" y="0" width="1600" height="400"/>

  <g opacity="0.35">
    <g>
      <line class="grid-line" x1="100" x2="100" y1="0" y2="400"/>
      <line class="grid-line" x1="250" x2="250" y1="0" y2="400"/>
      <line class="grid-line" x1="400" x2="400" y1="0" y2="400"/>
      <line class="grid-line" x1="550" x2="550" y1="0" y2="400"/>
      <line class="grid-line" x1="700" x2="700" y1="0" y2="400"/>
      <line class="grid-line" x1="850" x2="850" y1="0" y2="400"/>
      <line class="grid-line" x1="1000" x2="1000" y1="0" y2="400"/>
      <line class="grid-line" x1="1150" x2="1150" y1="0" y2="400"/>
      <line class="grid-line" x1="1300" x2="1300" y1="0" y2="400"/>
    </g>
    <g>
      <line class="grid-line" x1="0" x2="1600" y1="60" y2="60"/>
      <line class="grid-line" x1="0" x2="1600" y1="140" y2="140"/>
      <line class="grid-line" x1="0" x2="1600" y1="220" y2="220"/>
      <line class="grid-line" x1="0" x2="1600" y1="300" y2="300"/>
      <line class="grid-line" x1="0" x2="1600" y1="360" y2="360"/>
    </g>
  </g>

  <circle cx="1150" cy="200" r="180" fill="url(#grad-core)"/>

  <g stroke="url(#grad-neon)" stroke-width="1.5" opacity="0.7" style="animation: drift 12s infinite linear;">
    <polyline points="950,80 1030,140 1100,120 1180,160 1260,130 1350,190" fill="none"/>
    <polyline points="960,220 1040,260 1120,230 1200,270 1280,250 1360,300" fill="none"/>
    <polyline points="980,320 1060,300 1140,340 1220,310 1300,350 1380,330" fill="none"/>
  </g>

  <g filter="url(#glow)">
    <circle class="node node-pulse" cx="1030" cy="140" r="3"/>
    <circle class="node node-pulse" cx="1100" cy="120" r="3"/>
    <circle class="node node-pulse" cx="1180" cy="160" r="3"/>
    <circle class="node node-pulse" cx="1260" cy="130" r="3"/>
    <circle class="node node-pulse" cx="1040" cy="260" r="3"/>
    <circle class="node node-pulse" cx="1120" cy="230" r="3"/>
    <circle class="node node-pulse" cx="1200" cy="270" r="3"/>
    <circle class="node node-pulse" cx="1280" cy="250" r="3"/>
  </g>

  <g transform="translate(140, 130)">
    <text class="title" x="0" y="0" font-size="32">T800AiGC</text>
    <text class="subtitle" x="0" y="40">MESHALIGNED COGNITIVE ARCHITECTURE</text>
    <text class="tag" x="0" y="80">XAVIER_R1 :: QUIET_GUARDIAN_ARCHETYPE</text>
    <text class="tag" x="0" y="110">ASSISTIVE  NONAUTONOMOUS  ETHICSBOUND  SOVEREIGN_COMPUTE</text>
  </g>
</svg>
